<svg width="45" height="45" viewBox="0 0 45 45" fill="none" xmlns="http://www.w3.org/2000/svg">
<g filter="url(#filter0_d_4317_19165)">
<rect x="2.5" y="1.5" width="40" height="40" rx="5" fill="white" shape-rendering="crispEdges"/>
<rect x="2.5" y="1.5" width="40" height="40" rx="5" stroke="#EAEBF0" shape-rendering="crispEdges"/>
<path d="M18.5001 13.5H26.5001M22.5001 31.5V21.5M18.8772 17.5H26.1229C26.3461 17.5 26.5423 17.648 26.6037 17.8626L28.4262 24.2414C28.4723 24.4029 28.4343 24.5767 28.325 24.7042L22.8797 31.0571C22.6801 31.2899 22.32 31.2899 22.1204 31.0571L16.6751 24.7042C16.5658 24.5767 16.5278 24.4029 16.5739 24.2414L18.3964 17.8626C18.4578 17.648 18.654 17.5 18.8772 17.5ZM23.5001 21.5C23.5001 22.0523 23.0523 22.5 22.5001 22.5C21.9478 22.5 21.5001 22.0523 21.5001 21.5C21.5001 20.9477 21.9478 20.5 22.5001 20.5C23.0523 20.5 23.5001 20.9477 23.5001 21.5Z" stroke="#323232" stroke-width="1.5" stroke-linecap="round"/>
</g>
<defs>
<filter id="filter0_d_4317_19165" x="0" y="0" width="45" height="45" filterUnits="userSpaceOnUse" color-interpolation-filters="sRGB">
<feFlood flood-opacity="0" result="BackgroundImageFix"/>
<feColorMatrix in="SourceAlpha" type="matrix" values="0 0 0 0 0 0 0 0 0 0 0 0 0 0 0 0 0 0 127 0" result="hardAlpha"/>
<feOffset dy="1"/>
<feGaussianBlur stdDeviation="1"/>
<feComposite in2="hardAlpha" operator="out"/>
<feColorMatrix type="matrix" values="0 0 0 0 0.0627451 0 0 0 0 0.0941176 0 0 0 0 0.156863 0 0 0 0.04 0"/>
<feBlend mode="normal" in2="BackgroundImageFix" result="effect1_dropShadow_4317_19165"/>
<feBlend mode="normal" in="SourceGraphic" in2="effect1_dropShadow_4317_19165" result="shape"/>
</filter>
</defs>
</svg>
