<svg width="45" height="45" viewBox="0 0 45 45" fill="none" xmlns="http://www.w3.org/2000/svg">
<g filter="url(#filter0_d_4317_19201)">
<rect x="2.5" y="1.5" width="40" height="40" rx="5" fill="white" shape-rendering="crispEdges"/>
<rect x="2.5" y="1.5" width="40" height="40" rx="5" stroke="#EAEBF0" shape-rendering="crispEdges"/>
<path d="M21.5 14.5H23.5M19.7 31.5H25.3C26.4201 31.5 26.9802 31.5 27.408 31.282C27.7843 31.0903 28.0903 30.7843 28.282 30.408C28.5 29.9802 28.5 29.4201 28.5 28.3V14.7C28.5 13.5799 28.5 13.0198 28.282 12.592C28.0903 12.2157 27.7843 11.9097 27.408 11.718C26.9802 11.5 26.4201 11.5 25.3 11.5H19.7C18.5799 11.5 18.0198 11.5 17.592 11.718C17.2157 11.9097 16.9097 12.2157 16.718 12.592C16.5 13.0198 16.5 13.5799 16.5 14.7V28.3C16.5 29.4201 16.5 29.9802 16.718 30.408C16.9097 30.7843 17.2157 31.0903 17.592 31.282C18.0198 31.5 18.5799 31.5 19.7 31.5Z" stroke="#323232" stroke-width="1.5" stroke-linecap="round"/>
</g>
<defs>
<filter id="filter0_d_4317_19201" x="0" y="0" width="45" height="45" filterUnits="userSpaceOnUse" color-interpolation-filters="sRGB">
<feFlood flood-opacity="0" result="BackgroundImageFix"/>
<feColorMatrix in="SourceAlpha" type="matrix" values="0 0 0 0 0 0 0 0 0 0 0 0 0 0 0 0 0 0 127 0" result="hardAlpha"/>
<feOffset dy="1"/>
<feGaussianBlur stdDeviation="1"/>
<feComposite in2="hardAlpha" operator="out"/>
<feColorMatrix type="matrix" values="0 0 0 0 0.0627451 0 0 0 0 0.0941176 0 0 0 0 0.156863 0 0 0 0.04 0"/>
<feBlend mode="normal" in2="BackgroundImageFix" result="effect1_dropShadow_4317_19201"/>
<feBlend mode="normal" in="SourceGraphic" in2="effect1_dropShadow_4317_19201" result="shape"/>
</filter>
</defs>
</svg>
