<svg width="284" height="100" viewBox="0 0 284 100" fill="none" xmlns="http://www.w3.org/2000/svg">
<g clip-path="url(#clip0_40_349)">
<g clip-path="url(#clip1_40_349)">
<path d="M17.2483 51.7054C12.1812 51.7054 8.05475 50.0612 4.86893 46.7727C1.68311 43.4842 0.0917111 39.1373 0.0947309 33.732C0.0947309 28.3297 1.6967 24.0054 4.90063 20.7592C8.10457 17.513 12.2522 15.8899 17.3434 15.8899C22.4317 15.8899 26.6095 17.4707 29.8768 20.6324C33.1442 23.794 34.7779 28.0216 34.7779 33.3152C34.7815 34.4448 34.6982 35.573 34.5287 36.6898H9.16299C9.28303 38.7636 10.1807 40.7159 11.6769 42.157C13.1932 43.5593 15.2025 44.305 17.2664 44.2316C20.3254 44.2316 22.5902 42.9754 24.0608 40.4629H33.5866C32.6017 43.7424 30.5439 46.5961 27.7434 48.5664C24.8535 50.6561 21.3552 51.7024 17.2483 51.7054ZM23.0598 25.4337C21.4922 24.0541 19.4628 23.3151 17.3751 23.3637C15.3217 23.3002 13.3251 24.0432 11.8128 25.4337C10.2873 26.8965 9.34017 28.86 9.14487 30.9644H25.6054C25.5846 29.9176 25.3477 28.8864 24.9097 27.9355C24.4716 26.9846 23.8418 26.1344 23.0598 25.4383V25.4337Z" fill="white"/>
<path d="M37.5137 13.7836H47.6464L57.3035 43.0312L66.8926 13.7881H77.0254L63.2463 51.1845H51.2927L37.5137 13.7836Z" fill="white"/>
<path d="M86.0261 46.0706C82.1246 42.2657 80.1738 37.2801 80.1738 31.1138C80.1738 24.9475 82.1487 19.9861 86.0985 16.2296C90.0423 12.47 94.9433 10.5917 100.802 10.5947C106.66 10.5977 111.561 12.476 115.505 16.2296C119.455 19.9861 121.429 24.9475 121.429 31.1138C121.429 37.2801 119.442 42.2627 115.468 46.0615C111.498 49.8664 106.572 51.7688 100.693 51.7688C94.8135 51.7688 89.9245 49.8694 86.0261 46.0706ZM100.693 43.1807C102.067 43.1946 103.428 42.9222 104.691 42.381C105.953 41.8398 107.089 41.0416 108.026 40.0371C110.074 37.9414 111.097 34.9791 111.097 31.1501C111.097 27.321 110.086 24.3708 108.063 22.2992C107.123 21.3007 105.985 20.5088 104.723 19.9738C103.46 19.4388 102.1 19.1725 100.729 19.1919C99.3704 19.1703 98.0225 19.4359 96.7735 19.9714C95.5246 20.5068 94.4029 21.3001 93.4818 22.2992C91.5069 24.3677 90.5194 27.3301 90.5194 31.1863C90.5194 35.0425 91.5069 38.0049 93.4818 40.0734C94.397 41.0702 95.5125 41.8623 96.7552 42.3978C97.998 42.9333 99.3399 43.2001 100.693 43.1807Z" fill="white"/>
<path d="M147.076 5.53065H159.442L171.219 41.2194L182.923 5.52612H195.289L178.466 51.1845H163.895L147.076 5.53065Z" fill="white"/>
<path d="M222.576 51.8911C215.606 51.8911 209.934 49.6263 205.558 45.0967C201.183 40.5671 198.993 34.5941 198.99 27.1776C198.99 19.7491 201.193 13.8032 205.599 9.34007C210.005 4.8769 215.707 2.64682 222.707 2.64984C229.701 2.64984 235.446 4.82405 239.942 9.17247C244.439 13.5209 246.684 19.3233 246.678 26.5797C246.687 28.1416 246.572 29.7016 246.334 31.2452H211.433C211.72 34.3525 212.87 36.8574 214.885 38.7598C216.899 40.6623 219.466 41.6135 222.585 41.6135C226.788 41.6135 229.899 39.8847 231.916 36.4271H245.052C243.692 40.9352 240.857 44.8561 237.003 47.5608C233.032 50.4477 228.223 51.8911 222.576 51.8911ZM230.557 15.7812C228.403 13.8803 225.611 12.8614 222.739 12.9275C219.915 12.841 217.17 13.8656 215.093 15.7812C213.052 17.6776 211.829 20.2111 211.424 23.3818H234.072C233.897 20.2171 232.725 17.6836 230.557 15.7812Z" fill="white"/>
<path d="M269.466 0.729266V9.65711C272.869 3.21904 277.79 0 284.228 0V13.1358H281.057C277.228 13.1358 274.343 14.0931 272.401 16.0076C270.46 17.9221 269.481 21.2106 269.466 25.8731V51.1845H256.62V0.729266H269.466Z" fill="white"/>
<path d="M88.1055 66.0688V64.1075H46.8861V66.0688H88.1055Z" fill="white"/>
<path d="M140.73 7.17941H129.877V51.2026H140.73V7.17941Z" fill="white"/>
<path d="M3.1709 89.9126V64.1482H18.7391V66.2816H5.52176V75.9252H17.7064V78.0631H5.52176V87.7791H18.8841V89.9126H3.1709Z" fill="white"/>
<path d="M31.8433 90.429C30.3209 90.45 28.8207 90.0621 27.4994 89.3056C26.1861 88.5463 25.1089 87.4378 24.3875 86.1032C23.583 84.5927 23.1835 82.8995 23.228 81.1886V80.7356C23.185 79.0271 23.5778 77.3357 24.3694 75.821C25.0841 74.4816 26.1629 73.3714 27.4813 72.6186C28.8104 71.8652 30.3155 71.4775 31.8433 71.4952C32.9826 71.4637 34.1178 71.645 35.1906 72.0297C36.7273 72.5848 38.0006 73.6949 38.76 75.1416H39.2129V64.1346H41.4234V89.9126H39.2763V86.6377H38.8234C38.2398 87.6948 37.412 88.597 36.4091 89.2694C35.328 90.0455 33.8061 90.432 31.8433 90.429ZM32.3551 88.4405C33.2687 88.4807 34.1807 88.3302 35.0331 87.9988C35.8854 87.6674 36.6594 87.1622 37.306 86.5154C38.5712 85.2169 39.2039 83.4247 39.2039 81.1388V80.8443C39.2039 78.5614 38.5712 76.7707 37.306 75.4722C36.6623 74.8198 35.8894 74.3092 35.0368 73.973C34.1842 73.6368 33.2708 73.4825 32.3551 73.52C31.4426 73.4864 30.533 73.6426 29.6839 73.9787C28.8349 74.3147 28.0648 74.8233 27.4224 75.4722C26.148 76.7737 25.5109 78.5644 25.5109 80.8443V81.1388C25.5109 83.4217 26.148 85.2139 27.4224 86.5154C28.0676 87.1588 28.8388 87.6619 29.6877 87.9932C30.5365 88.3245 31.4446 88.4767 32.3551 88.4405Z" fill="white"/>
<path d="M47.0077 81.0436V80.5907C46.9592 78.8982 47.3592 77.2229 48.1673 75.735C48.8971 74.4254 49.9738 73.3424 51.2791 72.605C52.6027 71.8602 54.0998 71.4788 55.6185 71.4998C57.5843 71.4998 59.1123 71.8863 60.2024 72.6594C61.2044 73.3328 62.032 74.2348 62.6167 75.2911H63.0697V72.0207H65.1306V94.4739C65.1779 95.2259 64.9273 95.9662 64.4331 96.5349C64.1467 96.7985 63.809 97.0002 63.4412 97.1272C63.0733 97.2543 62.6831 97.304 62.2951 97.2732H50.0652V95.2847H61.8421C61.9944 95.3092 62.1503 95.2978 62.2974 95.2515C62.4446 95.2052 62.5789 95.1253 62.6897 95.018C62.8005 94.9107 62.8847 94.779 62.9358 94.6335C62.9868 94.4879 63.0032 94.3325 62.9836 94.1795V86.5154H62.5306C62.167 87.1571 61.7089 87.7404 61.1718 88.2457C60.5266 88.8422 59.7689 89.3042 58.9432 89.6046C57.8689 89.9897 56.7321 90.171 55.5913 90.1391C54.0672 90.1579 52.5647 89.7768 51.2338 89.0339C49.9214 88.2997 48.8428 87.2101 48.122 85.8903C47.3389 84.3978 46.9551 82.7283 47.0077 81.0436ZM56.1348 88.1461C57.047 88.1833 57.957 88.0329 58.8086 87.7041C59.6603 87.3753 60.4353 86.8751 61.0857 86.2346C62.351 84.9572 62.9836 83.2028 62.9836 80.9712V80.6768C62.9836 78.415 62.351 76.653 61.0857 75.3907C59.7282 74.1719 57.9682 73.4977 56.1439 73.4977C54.3196 73.4977 52.5596 74.1719 51.2021 75.3907C49.9278 76.656 49.2906 78.418 49.2906 80.6768V80.9712C49.2906 83.2058 49.9278 84.9602 51.2021 86.2346C51.8512 86.8718 52.6234 87.3699 53.4715 87.6986C54.3196 88.0272 55.2259 88.1795 56.1348 88.1461Z" fill="white"/>
<path d="M79.8432 90.429C78.1673 90.47 76.51 90.0701 75.0373 89.2694C73.693 88.5063 72.5934 87.3768 71.8666 86.0126C71.0847 84.5268 70.692 82.8672 70.7251 81.1886V80.7356C70.6877 79.0508 71.0806 77.3842 71.8666 75.8935C72.6011 74.5396 73.6993 73.4179 75.0373 72.6548C76.4342 71.8656 78.0171 71.4652 79.6212 71.4952C81.1645 71.4643 82.6904 71.8259 84.0557 72.5461C85.3387 73.2373 86.3943 74.285 87.0951 75.5628C87.8621 77.0055 88.2428 78.6221 88.2003 80.2555V81.4332H72.9265C72.999 83.6678 73.6799 85.3921 74.9693 86.606C76.2924 87.8304 78.0461 88.4817 79.8477 88.4178C81.5146 88.4178 82.8086 88.0373 83.7296 87.2764C84.6446 86.5229 85.3705 85.5658 85.8494 84.4816L87.8334 85.3649C87.4363 86.2226 86.9226 87.0213 86.3069 87.7384C85.6176 88.5578 84.7623 89.2217 83.7975 89.6861C82.5527 90.23 81.2005 90.484 79.8432 90.429ZM72.9582 79.5579H85.9174C85.8177 77.6193 85.1911 76.1275 84.0376 75.0827C82.8075 74.0121 81.2143 73.4529 79.585 73.52C77.957 73.4616 76.3668 74.0197 75.1324 75.0827C73.9638 76.1154 73.239 77.5996 72.9582 79.5353V79.5579Z" fill="white"/>
</g>
</g>
<defs>
<clipPath id="clip0_40_349">
<rect width="284" height="100" fill="white"/>
</clipPath>
<clipPath id="clip1_40_349">
<rect width="284.228" height="100" fill="white"/>
</clipPath>
</defs>
</svg>
