<svg width="45" height="45" viewBox="0 0 45 45" fill="none" xmlns="http://www.w3.org/2000/svg">
<g filter="url(#filter0_d_4317_19032)">
<rect x="2.5" y="1.5" width="40" height="40" rx="5" fill="white" shape-rendering="crispEdges"/>
<rect x="2.5" y="1.5" width="40" height="40" rx="5" stroke="#EAEBF0" shape-rendering="crispEdges"/>
<path d="M20.7724 27.3181C20.6719 27.7199 20.9163 28.1271 21.3181 28.2276C21.7199 28.3281 22.1271 28.0837 22.2276 27.6819L20.7724 27.3181ZM24.2276 19.6819C24.3281 19.2801 24.0837 18.8729 23.6819 18.7724C23.2801 18.6719 22.8729 18.9163 22.7724 19.3181L24.2276 19.6819ZM19.0303 21.0303C19.3232 20.7374 19.3232 20.2626 19.0303 19.9697C18.7374 19.6768 18.2626 19.6768 17.9697 19.9697L19.0303 21.0303ZM15.7828 23.7828L16.3132 23.2525L15.7828 23.7828ZM17.9697 27.0303C18.2626 27.3232 18.7374 27.3232 19.0303 27.0303C19.3232 26.7374 19.3232 26.2626 19.0303 25.9697L17.9697 27.0303ZM27.0303 19.9697C26.7374 19.6768 26.2626 19.6768 25.9697 19.9697C25.6768 20.2626 25.6768 20.7374 25.9697 21.0303L27.0303 19.9697ZM29.2172 23.7828L28.6868 23.2525L29.2172 23.7828ZM25.9697 25.9697C25.6768 26.2626 25.6768 26.7374 25.9697 27.0303C26.2626 27.3232 26.7374 27.3232 27.0303 27.0303L25.9697 25.9697ZM14.23 31.955L14.5705 31.2868H14.5705L14.23 31.955ZM12.045 29.77L12.7132 29.4295L12.045 29.77ZM32.955 29.77L32.2868 29.4295L32.955 29.77ZM30.77 31.955L30.4295 31.2868L30.77 31.955ZM30.77 11.045L30.4295 11.7132L30.77 11.045ZM33.452 15.5L34.2006 15.4543L33.452 15.5ZM32.955 13.23L32.2868 13.5705V13.5705L32.955 13.23ZM14.23 11.045L14.5705 11.7132L14.5705 11.7132L14.23 11.045ZM12.045 13.23L12.7132 13.5705L12.7132 13.5705L12.045 13.23ZM21.5 27.5L22.2276 27.6819L24.2276 19.6819L23.5 19.5L22.7724 19.3181L20.7724 27.3181L21.5 27.5ZM18.5 20.5L17.9697 19.9697L15.2525 22.6868L15.7828 23.2172L16.3132 23.7475L19.0303 21.0303L18.5 20.5ZM15.7828 23.7828L15.2525 24.3132L17.9697 27.0303L18.5 26.5L19.0303 25.9697L16.3132 23.2525L15.7828 23.7828ZM15.7828 23.2172L15.2525 22.6868C14.8034 23.1359 14.8034 23.8641 15.2525 24.3132L15.7828 23.7828L16.3132 23.2525C16.4499 23.3892 16.4499 23.6108 16.3132 23.7475L15.7828 23.2172ZM26.5 20.5L25.9697 21.0303L28.6868 23.7475L29.2172 23.2172L29.7475 22.6868L27.0303 19.9697L26.5 20.5ZM29.2172 23.7828L28.6868 23.2525L25.9697 25.9697L26.5 26.5L27.0303 27.0303L29.7475 24.3132L29.2172 23.7828ZM29.2172 23.2172L28.6868 23.7475C28.5501 23.6108 28.5501 23.3892 28.6868 23.2525L29.2172 23.7828L29.7475 24.3132C30.1966 23.8641 30.1966 23.1359 29.7475 22.6868L29.2172 23.2172ZM19.5 10.5V11.25H25.5V10.5V9.75H19.5V10.5ZM33.5 18.5H32.75V24.5H33.5H34.25V18.5H33.5ZM25.5 32.5V31.75H19.5V32.5V33.25H25.5V32.5ZM11.5 24.5H12.25V18.5H11.5H10.75V24.5H11.5ZM19.5 32.5V31.75C18.0875 31.75 17.0732 31.7494 16.2771 31.6844C15.4897 31.62 14.982 31.4964 14.5705 31.2868L14.23 31.955L13.8896 32.6233C14.5477 32.9586 15.2748 33.1075 16.1549 33.1794C17.0263 33.2506 18.1122 33.25 19.5 33.25V32.5ZM11.5 24.5H10.75C10.75 25.8878 10.7494 26.9737 10.8206 27.8451C10.8925 28.7252 11.0414 29.4523 11.3767 30.1104L12.045 29.77L12.7132 29.4295C12.5036 29.018 12.38 28.5103 12.3156 27.7229C12.2506 26.9268 12.25 25.9125 12.25 24.5H11.5ZM14.23 31.955L14.5705 31.2868C13.7709 30.8793 13.1207 30.2291 12.7132 29.4295L12.045 29.77L11.3767 30.1104C11.928 31.1924 12.8076 32.072 13.8896 32.6233L14.23 31.955ZM33.5 24.5H32.75C32.75 25.9125 32.7494 26.9268 32.6844 27.7229C32.62 28.5103 32.4964 29.018 32.2868 29.4295L32.955 29.77L33.6233 30.1104C33.9586 29.4523 34.1075 28.7252 34.1794 27.8451C34.2506 26.9737 34.25 25.8878 34.25 24.5H33.5ZM25.5 32.5V33.25C26.8878 33.25 27.9737 33.2506 28.8451 33.1794C29.7252 33.1075 30.4523 32.9586 31.1104 32.6233L30.77 31.955L30.4295 31.2868C30.018 31.4964 29.5103 31.62 28.7229 31.6844C27.9268 31.7494 26.9125 31.75 25.5 31.75V32.5ZM32.955 29.77L32.2868 29.4295C31.8793 30.2291 31.2291 30.8793 30.4295 31.2868L30.77 31.955L31.1104 32.6233C32.1924 32.072 33.072 31.1924 33.6233 30.1104L32.955 29.77ZM25.5 10.5V11.25C26.9125 11.25 27.9268 11.2506 28.7229 11.3156C29.5103 11.38 30.018 11.5036 30.4295 11.7132L30.77 11.045L31.1104 10.3767C30.4523 10.0414 29.7252 9.89252 28.8451 9.82061C27.9737 9.74942 26.8878 9.75 25.5 9.75V10.5ZM33.5 18.5H34.25C34.25 17.263 34.2503 16.268 34.2006 15.4543L33.452 15.5L32.7034 15.5457C32.7497 16.3034 32.75 17.2456 32.75 18.5H33.5ZM33.452 15.5L34.2006 15.4543C34.1385 14.4361 33.9951 13.6193 33.6233 12.8896L32.955 13.23L32.2868 13.5705C32.52 14.0283 32.6458 14.6028 32.7034 15.5457L33.452 15.5ZM30.77 11.045L30.4295 11.7132C31.2291 12.1207 31.8793 12.7709 32.2868 13.5705L32.955 13.23L33.6233 12.8896C33.072 11.8076 32.1924 10.928 31.1104 10.3767L30.77 11.045ZM19.5 10.5V9.75C18.1122 9.75 17.0263 9.74942 16.1549 9.82061C15.2748 9.89252 14.5477 10.0414 13.8896 10.3767L14.23 11.045L14.5705 11.7132C14.982 11.5036 15.4897 11.38 16.2771 11.3156C17.0732 11.2506 18.0875 11.25 19.5 11.25V10.5ZM11.5 18.5H12.25C12.25 17.2456 12.2503 16.3034 12.2966 15.5457L11.548 15.5L10.7994 15.4543C10.7497 16.268 10.75 17.263 10.75 18.5H11.5ZM11.548 15.5L12.2966 15.5457C12.3542 14.6028 12.48 14.0283 12.7132 13.5705L12.045 13.23L11.3767 12.8896C11.0049 13.6193 10.8615 14.4361 10.7994 15.4543L11.548 15.5ZM14.23 11.045L13.8896 10.3767C12.8076 10.928 11.928 11.8076 11.3767 12.8896L12.045 13.23L12.7132 13.5705C13.1207 12.7709 13.7709 12.1207 14.5705 11.7132L14.23 11.045ZM11.548 15.5V16.25H33.452V15.5V14.75H11.548V15.5Z" fill="#323232"/>
</g>
<defs>
<filter id="filter0_d_4317_19032" x="0" y="0" width="45" height="45" filterUnits="userSpaceOnUse" color-interpolation-filters="sRGB">
<feFlood flood-opacity="0" result="BackgroundImageFix"/>
<feColorMatrix in="SourceAlpha" type="matrix" values="0 0 0 0 0 0 0 0 0 0 0 0 0 0 0 0 0 0 127 0" result="hardAlpha"/>
<feOffset dy="1"/>
<feGaussianBlur stdDeviation="1"/>
<feComposite in2="hardAlpha" operator="out"/>
<feColorMatrix type="matrix" values="0 0 0 0 0.0627451 0 0 0 0 0.0941176 0 0 0 0 0.156863 0 0 0 0.04 0"/>
<feBlend mode="normal" in2="BackgroundImageFix" result="effect1_dropShadow_4317_19032"/>
<feBlend mode="normal" in="SourceGraphic" in2="effect1_dropShadow_4317_19032" result="shape"/>
</filter>
</defs>
</svg>
